# xmcd
#
# Track frame offsets: 
#        150
#        17497
#        34741
#        44444
#        67417
#        88400
#        108705
#        120174
#        133537
#        153153
#        165428
#        177597
#
# Disc length: 2733 seconds
#
# Revision: 1
# Processed by: cddbd v1.5.2PL0 Copyright (c) Steve Scherf et al.
# Submitted via: ExactAudioCopy v0.99pb4
#
DISCID=9f0aab0c
DTITLE=Phillip Walker - The Best of Phillip Walker
DYEAR=1984
DGENRE=Blues
TTITLE0=I'm Tough (Tough as I Want To Be)
TTITLE1=Laughin' and Clownin'
TTITLE2=Hello My Darling
TTITLE3=Tin Pan Alley
TTITLE4=Don't Be Afraid of the Dark
TTITLE5=El Paso Blues
TTITLE6=If We Can Find It
TTITLE7=Breakin' Up Somebody's Home
TTITLE8=Go Ahead and Take Her
TTITLE9=The Struggle
TTITLE10=Someday You'll Have These Blues
TTITLE11=The Blues and My Guitar
EXTD=upc =01292-88157-27
EXTT0=
EXTT1=
EXTT2=
EXTT3=
EXTT4=
EXTT5=
EXTT6=
EXTT7=
EXTT8=
EXTT9=
EXTT10=
EXTT11=
PLAYORDER=
